<?xml version="1.0" encoding="UTF-8" standalone="no"?>
<!-- Created with Inkscape (http://www.inkscape.org/) -->

<svg
   xmlns:dc="http://purl.org/dc/elements/1.1/"
   xmlns:cc="http://creativecommons.org/ns#"
   xmlns:rdf="http://www.w3.org/1999/02/22-rdf-syntax-ns#"
   xmlns:svg="http://www.w3.org/2000/svg"
   xmlns="http://www.w3.org/2000/svg"
   xmlns:sodipodi="http://sodipodi.sourceforge.net/DTD/sodipodi-0.dtd"
   xmlns:inkscape="http://www.inkscape.org/namespaces/inkscape"
   width="55.702164mm"
   height="62.140347mm"
   viewBox="0 0 55.702164 62.140347"
   version="1.1"
   id="svg33"
   inkscape:version="0.92.3 (2405546, 2018-03-11)"
   sodipodi:docname="Online Learning.svg">
  <title
     id="title48">Online Learning</title>
  <defs
     id="defs27" />
  <sodipodi:namedview
     id="base"
     pagecolor="#ffffff"
     bordercolor="#666666"
     borderopacity="1.0"
     inkscape:pageopacity="0.0"
     inkscape:pageshadow="2"
     inkscape:zoom="0.35"
     inkscape:cx="269.64281"
     inkscape:cy="17.900658"
     inkscape:document-units="mm"
     inkscape:current-layer="layer1"
     showgrid="false"
     fit-margin-top="0"
     fit-margin-left="0"
     fit-margin-right="0"
     fit-margin-bottom="0"
     inkscape:window-width="1920"
     inkscape:window-height="1017"
     inkscape:window-x="3832"
     inkscape:window-y="-8"
     inkscape:window-maximized="1" />
  <metadata
     id="metadata30">
    <rdf:RDF>
      <cc:Work
         rdf:about="">
        <dc:format>image/svg+xml</dc:format>
        <dc:type
           rdf:resource="http://purl.org/dc/dcmitype/StillImage" />
        <dc:title>Online Learning</dc:title>
        <cc:license
           rdf:resource="http://creativecommons.org/publicdomain/zero/1.0/" />
        <dc:subject>
          <rdf:Bag>
            <rdf:li>Learn</rdf:li>
            <rdf:li>online</rdf:li>
            <rdf:li>book</rdf:li>
            <rdf:li>silhouette</rdf:li>
            <rdf:li>icon</rdf:li>
            <rdf:li>concept</rdf:li>
            <rdf:li>study</rdf:li>
            <rdf:li>education</rdf:li>
            <rdf:li>research</rdf:li>
            <rdf:li>library</rdf:li>
            <rdf:li>world</rdf:li>
            <rdf:li>encyclopedia</rdf:li>
            <rdf:li>global</rdf:li>
            <rdf:li>learning</rdf:li>
            <rdf:li>university</rdf:li>
            <rdf:li>web</rdf:li>
            <rdf:li>internet</rdf:li>
            <rdf:li>course</rdf:li>
            <rdf:li>webinar</rdf:li>
            <rdf:li>guide</rdf:li>
            <rdf:li>read</rdf:li>
            <rdf:li>publish</rdf:li>
            <rdf:li>design</rdf:li>
            <rdf:li>logo</rdf:li>
          </rdf:Bag>
        </dc:subject>
      </cc:Work>
      <cc:License
         rdf:about="http://creativecommons.org/publicdomain/zero/1.0/">
        <cc:permits
           rdf:resource="http://creativecommons.org/ns#Reproduction" />
        <cc:permits
           rdf:resource="http://creativecommons.org/ns#Distribution" />
        <cc:permits
           rdf:resource="http://creativecommons.org/ns#DerivativeWorks" />
      </cc:License>
    </rdf:RDF>
  </metadata>
  <g
     inkscape:label="Layer 1"
     inkscape:groupmode="layer"
     id="layer1"
     transform="translate(-34.490339,-91.429203)">
    <path
       style="fill:#000000;stroke-width:1"
       d="m 61.193216,153.55871 c -1.40754,-0.0701 -3.13451,-0.28093 -4.3818,-0.53496 -0.594,-0.12098 -2.05771,-0.48266 -2.09198,-0.51692 -0.008,-0.008 0.1765,-0.67604 0.41059,-1.48394 0.23409,-0.80791 0.43894,-1.51996 0.45523,-1.58233 l 0.0296,-0.1134 0.62398,0.15769 c 2.1369,0.54004 3.87342,0.7544 6.10375,0.75347 2.71254,-10e-4 5.19296,-0.39835 7.74733,-1.24071 0.45341,-0.14952 0.83074,-0.26548 0.83853,-0.25769 0.0617,0.0617 1.13217,3.06481 1.10226,3.0923 -0.0683,0.0628 -1.83191,0.62262 -2.5816,0.8195 -1.45085,0.38103 -3.0522,0.66113 -4.59767,0.80421 -0.87041,0.0806 -2.93768,0.13866 -3.65822,0.10278 z m -9.19499,-1.97837 c -2.84385,-1.15076 -5.575877,-2.81314 -7.88523,-4.798 -1.327371,-1.14086 -2.971301,-2.90489 -4.072226,-4.36972 -0.614563,-0.81771 -0.767261,-1.05906 -0.705787,-1.11553 0.04112,-0.0378 2.465482,-1.68631 2.618224,-1.78035 0.03469,-0.0214 0.186141,0.14376 0.369655,0.40303 0.804521,1.13661 1.778011,2.26487 2.893198,3.35314 2.379521,2.3221 5.150016,4.10973 8.238936,5.3161 0.36018,0.14067 0.65487,0.26817 0.65487,0.28335 0,0.0152 -0.21959,0.64385 -0.48798,1.39706 -0.26839,0.7532 -0.51131,1.43561 -0.53982,1.51647 -0.0292,0.0829 -0.0904,0.1456 -0.14017,0.14379 -0.0486,-0.002 -0.47323,-0.15897 -0.94367,-0.34934 z m 21.039,-1.95739 c -0.47839,-1.0822 -0.6454,-1.51202 -0.59413,-1.52911 0.19629,-0.0654 1.97154,-0.99768 2.4624,-1.29311 2.68302,-1.61476 5.06425,-3.73918 6.94282,-6.19408 0.38973,-0.5093 1.38,-1.97923 1.69153,-2.51088 l 0.16106,-0.27486 1.4075,0.79724 c 0.77412,0.43847 1.42055,0.81028 1.43649,0.82623 0.0718,0.0718 -1.09393,1.8779 -1.93597,2.99951 -0.87123,1.16049 -1.51982,1.9021 -2.64267,3.02172 -1.78454,1.77938 -3.46246,3.06879 -5.69755,4.37827 -0.68509,0.40138 -2.42829,1.28899 -2.52515,1.28577 -0.0225,-8e-4 -0.34033,-0.67876 -0.70633,-1.5067 z m -11.56485,-5.81793 c -3.59474,-0.30008 -6.80949,-1.78848 -9.34217,-4.32534 -0.79249,-0.79379 -1.23284,-1.33222 -1.86076,-2.27519 -2.16124,-3.24561 -2.948991,-7.27928 -2.17287,-11.1262 1.16678,-5.78325 5.73534,-10.36971 11.51959,-11.56473 1.33144,-0.27507 3.29915,-0.36929 4.59749,-0.22012 5.86495,0.6738 10.71636,4.64583 12.50398,10.23745 0.50167,1.56925 0.66976,2.69724 0.66976,4.49474 0,0.99768 -0.0239,1.4991 -0.0942,1.97799 -0.33807,2.30325 -1.1127,4.35343 -2.34291,6.20087 -0.64214,0.96433 -1.07279,1.48777 -1.91357,2.3259 -2.32861,2.32126 -5.30784,3.78166 -8.55579,4.19401 -0.80119,0.10172 -2.28084,0.14137 -3.00858,0.0806 z m 2.5186,-2.016 c 1.5001,-1.61383 2.70402,-3.32105 3.58706,-5.08664 0.36316,-0.72612 0.36438,-0.73249 0.15263,-0.80105 -1.02618,-0.33225 -3.18491,-0.70116 -4.10295,-0.70116 h -0.32287 v 3.58176 c 0,3.05977 0.0111,3.58177 0.076,3.58177 0.0418,0 0.31635,-0.25861 0.61015,-0.57468 z m -2.07606,-3.06054 v -3.52831 h -0.33445 c -0.42456,0 -1.50207,0.12662 -2.24071,0.2633 -0.61621,0.11404 -1.68473,0.36904 -1.79839,0.4292 -0.14797,0.0783 1.00122,2.18132 1.8825,3.44496 0.63365,0.90857 2.3208,2.9178 2.45095,2.91883 0.0221,0 0.0401,-1.58741 0.0401,-3.52798 z m -2.25081,3.27437 c -0.0396,-0.0514 -0.18272,-0.22586 -0.31797,-0.38758 -0.65569,-0.78404 -1.54757,-2.05879 -2.09455,-2.99371 -0.22239,-0.38013 -0.82922,-1.56493 -1.14493,-2.2354 -0.0143,-0.0304 -1.04872,0.42463 -1.6493,0.72544 -0.47338,0.23711 -1.57657,0.86532 -1.68075,0.95712 -0.0362,0.0319 0.45001,0.51368 1.01251,1.00313 1.557,1.35484 3.25854,2.27967 5.22162,2.83811 0.74849,0.21292 0.74551,0.2125 0.65337,0.0929 z m 7.35616,-0.34591 c 1.83913,-0.63183 3.80721,-1.88326 5.17976,-3.2936 l 0.26152,-0.26872 -0.39365,-0.25465 c -0.46495,-0.30077 -1.71376,-0.95259 -2.32673,-1.21442 l -0.43318,-0.18504 -0.48806,0.97024 c -0.73671,1.46457 -1.6846,2.91571 -2.71661,4.1589 -0.18664,0.22482 -0.33934,0.42176 -0.33934,0.43763 0,0.0385 0.66041,-0.14562 1.25629,-0.35034 z m -14.43182,-5.15971 c 0.60095,-0.36211 1.94015,-1.04042 2.51042,-1.27153 0.20581,-0.0834 0.39418,-0.16851 0.41858,-0.1891 0.0244,-0.0206 -0.0284,-0.27488 -0.11727,-0.56508 -0.45957,-1.50019 -0.80918,-3.41332 -0.80918,-4.42806 v -0.29613 h -2.67044 -2.67044 l 0.0271,0.28066 c 0.23944,2.47829 0.91539,4.45608 2.17414,6.36133 0.3577,0.54144 0.3858,0.57028 0.48989,0.50286 0.0607,-0.0393 0.35196,-0.21706 0.64718,-0.39495 z m 21.26158,-0.22788 c 1.18539,-1.82463 1.85649,-3.81535 2.09503,-6.21463 l 0.0306,-0.30739 h -2.55586 -2.55587 l -0.0658,0.79942 c -0.10866,1.32065 -0.44814,2.99457 -0.83471,4.11582 -0.0755,0.21886 -0.119,0.4151 -0.0968,0.43607 0.0222,0.021 0.19679,0.10313 0.38791,0.18255 0.61283,0.25465 1.9047,0.9221 2.52163,1.30282 l 0.59882,0.36953 0.0899,-0.11489 c 0.0495,-0.0632 0.22276,-0.31938 0.38512,-0.5693 z m -5.18368,-2.28538 c 0.23368,-0.75875 0.31893,-1.09617 0.46257,-1.83098 0.121,-0.61894 0.27028,-1.82224 0.27028,-2.17857 v -0.22797 l -3.03381,0.0138 -3.0338,0.0138 v 1.97799 1.97799 l 0.61477,0.0392 c 1.21118,0.0773 2.96719,0.38477 4.03618,0.70676 0.23522,0.0709 0.44177,0.13046 0.45901,0.13246 0.0172,0.002 0.1184,-0.27903 0.2248,-0.62451 z m -10.82112,0.33107 c 1.12163,-0.28408 2.67671,-0.51977 3.77566,-0.57224 l 0.2673,-0.0128 v -1.97799 -1.97799 l -2.93496,-0.0138 -2.93496,-0.0138 0.0359,0.59062 c 0.0697,1.14738 0.45918,3.0224 0.86421,4.16035 0.0159,0.0447 0.0614,0.0583 0.11886,0.0356 0.0512,-0.0202 0.41482,-0.1183 0.80802,-0.21789 z m -3.25416,-6.3185 c 1.1e-4,-0.45028 0.14757,-1.65147 0.29775,-2.4252 0.11415,-0.58805 0.43039,-1.83334 0.52951,-2.08509 0.0256,-0.0651 -0.0218,-0.10888 -0.19152,-0.1768 -0.87973,-0.352 -2.10552,-0.98477 -3.02134,-1.55966 l -0.56942,-0.35744 -0.0968,0.12796 c -0.2262,0.29899 -0.88214,1.48125 -1.13077,2.03808 -0.14796,0.33135 -0.37193,0.91519 -0.49771,1.29742 -0.32645,0.99199 -0.48129,1.76063 -0.63809,3.16746 l -0.0313,0.28066 h 2.6748 2.6748 l 6e-5,-0.30739 z m 7.3112,-1.47013 -0.0141,-1.77752 -0.2673,-0.0128 c -1.15877,-0.0553 -2.69623,-0.29021 -3.80309,-0.58102 -1.12758,-0.29625 -1.00789,-0.31053 -1.14092,0.13614 -0.31174,1.04675 -0.57045,2.476 -0.62716,3.46473 l -0.0314,0.54795 h 2.94904 2.94903 z m 7.49687,1.57705 c 0,-0.36433 -0.16529,-1.63328 -0.29748,-2.28538 -0.14006,-0.69094 -0.42713,-1.77288 -0.50296,-1.89556 -0.039,-0.0631 -0.14543,-0.0478 -0.65213,0.0937 -1.44637,0.40381 -2.95349,0.65338 -4.34769,0.71994 l -0.26729,0.0128 -0.0112,1.73265 c -0.006,0.95296 10e-4,1.75284 0.0165,1.77752 0.0153,0.0247 1.38551,0.0449 3.04502,0.0449 h 3.01729 v -0.20047 z m 6.55617,0 c -0.0158,-0.11026 -0.0439,-0.36887 -0.0624,-0.57469 -0.12806,-1.42707 -0.70734,-3.32309 -1.43731,-4.70441 -0.28955,-0.54792 -0.82313,-1.41667 -0.87011,-1.41667 -0.0144,0 -0.27064,0.1525 -0.56934,0.33889 -0.84409,0.52672 -1.5779,0.92303 -2.3381,1.26277 -0.38362,0.17144 -0.70828,0.3225 -0.72147,0.33569 -0.0132,0.0132 0.0137,0.12996 0.0598,0.25951 0.3235,0.90993 0.67284,2.66306 0.7817,3.92291 l 0.0671,0.77647 h 2.55944 2.55945 z m -11.26052,-4.91067 c 1.11328,-0.12748 3.16944,-0.57062 3.33382,-0.71849 0.0663,-0.0596 -0.64097,-1.49585 -1.18088,-2.39804 -0.53595,-0.89557 -1.10415,-1.70392 -1.81351,-2.58001 -0.62141,-0.76748 -1.61541,-1.81935 -1.68096,-1.77884 -0.0468,0.0289 -0.0728,7.51906 -0.0263,7.56581 0.0353,0.0355 0.58707,-0.001 1.36778,-0.0904 z m -2.77987,-3.65617 c 0,-2.24343 -0.0197,-3.74214 -0.0492,-3.74214 -0.0577,0 -0.80388,0.80438 -1.3141,1.41667 -1.18694,1.42435 -2.29612,3.16879 -2.96528,4.66359 -0.1479,0.33039 -0.26891,0.61203 -0.26891,0.62588 0,0.0429 0.72908,0.24496 1.47666,0.4092 0.87537,0.19232 2.08888,0.3571 2.6798,0.36388 l 0.44104,0.005 z m -5.75769,2.00472 c 0.70127,-1.63964 1.90432,-3.57632 3.18114,-5.12106 0.18942,-0.22916 0.33542,-0.42539 0.32446,-0.43608 -0.0328,-0.032 -1.2278,0.32505 -1.79245,0.5356 -1.22613,0.4572 -2.7176,1.32505 -3.76051,2.18814 -0.52739,0.43646 -1.55031,1.43948 -1.55031,1.52015 0,0.17773 3.26012,1.89277 3.37798,1.77704 0.0202,-0.0199 0.11909,-0.22857 0.21969,-0.46379 z m 14.28443,-0.0188 c 0.75699,-0.37026 1.84192,-0.97998 2.1354,-1.20008 0.10041,-0.0753 0.0959,-0.0876 -0.13177,-0.35951 -0.31069,-0.37107 -1.2097,-1.17974 -1.8292,-1.64537 -0.89071,-0.66947 -2.12773,-1.35935 -3.13494,-1.74833 -0.55769,-0.21538 -1.72262,-0.57335 -1.75629,-0.53968 -0.0132,0.0132 0.10479,0.17619 0.26219,0.3622 1.20062,1.41883 2.22834,3.01188 3.03794,4.70905 0.25478,0.53408 0.43018,0.84043 0.48113,0.8403 0.0441,-1.1e-4 0.4651,-0.18847 0.93554,-0.41858 z m -32.454954,17.7312 c -1.38876,-2.47437 -2.51719,-5.61172 -3.038779,-8.44865 -0.328902,-1.7889 -0.457584,-3.24617 -0.457584,-5.18193 0,-1.16436 0.07437,-2.70217 0.133598,-2.76276 0.01816,-0.0186 3.248887,0.30814 3.271594,0.33085 0.0074,0.007 -0.0092,0.26468 -0.03682,0.57171 -0.06692,0.7427 -0.0663,3.01681 10e-4,3.81923 0.269473,3.21069 1.08506,6.16942 2.476631,8.98455 0.275225,0.55678 0.57709,1.14153 0.670814,1.29946 0.09372,0.15793 0.163297,0.29246 0.154609,0.29896 -0.120431,0.0901 -2.785645,1.63246 -2.820957,1.63246 -0.02689,0 -0.186257,-0.24475 -0.354148,-0.54388 z m 47.890244,-2.10687 -1.45782,-0.71656 0.12881,-0.25424 c 0.47736,-0.94217 1.22219,-2.99316 1.55023,-4.26879 0.5597,-2.17647 0.78109,-3.93271 0.78109,-6.19616 0,-1.45491 -0.0477,-2.14707 -0.24433,-3.5461 -0.0758,-0.53903 -0.12971,-0.98567 -0.1199,-0.99253 0.0616,-0.0431 3.17888,-0.59994 3.20824,-0.57314 0.0625,0.057 0.30442,1.75446 0.38955,2.73283 0.10645,1.22336 0.10625,3.53828 -6e-4,4.75787 -0.2509,2.86878 -0.91885,5.60484 -2.01639,8.25945 -0.35495,0.85853 -0.67001,1.52429 -0.71871,1.51877 -0.0234,-0.003 -0.69856,-0.32729 -1.50036,-0.7214 z m -49.454295,-15.7949 c -0.833695,-0.14211 -1.528841,-0.27142 -1.544773,-0.28735 -0.01594,-0.0159 0.03611,-0.36023 0.115654,-0.76512 1.027015,-5.22772 3.601586,-10.1508 7.325994,-14.00872 l 0.593799,-0.61509 1.159313,1.1931 1.159314,1.19309 -0.599573,0.62006 c -2.756176,2.85032 -4.822054,6.45442 -5.917548,10.32366 -0.182665,0.64517 -0.464528,1.86165 -0.559672,2.41546 -0.02461,0.14328 -0.06044,0.19887 -0.12557,0.19488 -0.05012,-0.003 -0.773245,-0.12186 -1.606938,-0.26397 z m 49.576635,-2.25574 c -0.223,-0.80867 -0.68318,-2.13055 -1.02116,-2.93333 -1.50979,-3.58604 -3.74125,-6.61961 -6.82917,-9.28397 l -0.20278,-0.17496 1.05202,-1.28162 1.05201,-1.28162 0.32524,0.28048 c 4.03087,3.4761 6.87758,7.72845 8.47269,12.65629 0.29244,0.90344 0.5159,1.70396 0.48443,1.73543 -0.011,0.0109 -0.69348,0.19167 -1.51672,0.40158 -0.82325,0.20991 -1.53471,0.39261 -1.58104,0.40599 -0.0666,0.0192 -0.11591,-0.0906 -0.23552,-0.52427 z m -39.017692,-8.41331 c -0.01839,-0.93747 -0.03985,-4.60332 -0.04771,-8.14633 l -0.01429,-6.441833 h 1.082572 1.08258 l -3e-5,-0.48949 -3e-5,-0.48948 0.58233,-0.2458 c 0.32027,-0.13519 0.81344,-0.32061 1.09591,-0.41205 l 0.51359,-0.16625 v -1.10951 -1.1095 l 0.30739,-0.0849 c 0.4835,-0.13346 1.31475,-0.2912 2.07155,-0.39309 0.98405,-0.13248 3.71781,-0.13297 4.69551,-8.4e-4 1.01703,0.13744 1.90162,0.33703 2.68186,0.60508 0.38223,0.13131 0.71902,0.23895 0.74843,0.2392 0.0294,2.6e-4 0.36758,-0.10918 0.75151,-0.24316 2.42582,-0.84655 5.88059,-1.00518 8.84286,-0.40603 0.54306,0.10984 0.79398,0.18434 0.84199,0.24998 0.0499,0.0683 0.0686,0.37549 0.0692,1.13911 l 8.1e-4,1.0456 0.70749,0.22941 c 0.38912,0.12617 0.8819,0.31111 1.09507,0.41097 l 0.38758,0.18158 v 0.49245 0.49246 l 1.08712,-0.0291 1.08713,-0.0291 0.0355,5.696613 c 0.0195,3.13314 0.0355,6.79598 0.0355,8.13965 v 2.44304 l -9.7964,0.0341 c -5.38802,0.0188 -12.07234,0.0493 -14.85405,0.0679 l -5.05764,0.0338 -0.03342,-1.7045 z m 2.144032,0.75547 c 0.0312,-0.025 0.009,-13.295513 -0.0228,-13.858033 l -0.0345,-0.60353 -0.3527,4.9e-4 c -0.19399,2.6e-4 -0.479,0.0156 -0.63336,0.0342 l -0.280665,0.0337 4.1e-5,3.266933 c 2e-5,1.79681 0.01602,5.05388 0.03553,7.23793 l 0.0355,3.971 0.61934,-0.0356 c 0.34063,-0.0196 0.62572,-0.0408 0.63353,-0.047 z m 18.80345,-0.022 6.57548,-0.0323 -0.4544,-0.23468 c -0.24993,-0.12907 -0.80323,-0.34946 -1.22957,-0.48976 -1.41898,-0.46696 -2.78435,-0.68374 -4.6005,-0.73044 -2.15871,-0.0555 -4.0178,0.18726 -5.71005,0.74562 l -0.66116,0.21815 -0.59513,-0.19452 c -3.04851,-0.99642 -7.16406,-1.00642 -10.19105,-0.0248 -0.68405,0.22184 -1.38246,0.50852 -1.67822,0.68887 -0.16364,0.0998 -0.0752,0.10119 5.90149,0.0937 3.3372,-0.004 9.02659,-0.0221 12.64311,-0.0399 z m 7.9116,-1.91676 c 0,-1.03644 -0.006,-4.30213 -0.0134,-7.25708 l -0.013,-5.372653 h -0.67705 -0.67705 l 0.0355,4.771233 c 0.0195,2.62418 0.0355,5.89662 0.0356,7.2721 l 3e-5,2.50086 0.65487,-0.015 0.65488,-0.015 -6.1e-4,-1.88444 z m -25.1522,0.40705 c 1.69434,-0.5825 3.24527,-0.81663 5.42611,-0.81911 2.10545,-0.002 3.68734,0.2249 5.27853,0.75848 l 0.44161,0.14808 0.59404,-0.19613 c 2.38178,-0.7864 5.83517,-0.98508 8.57421,-0.49329 0.62824,0.1128 1.59152,0.35945 2.16176,0.55353 0.26279,0.0894 0.48487,0.16262 0.49351,0.16262 0.009,0 6.1e-4,-3.24163 -0.0181,-7.20363 -0.0241,-5.141203 -0.0506,-7.214923 -0.0926,-7.243073 -0.0809,-0.0543 -0.74261,-0.30712 -1.03146,-0.39404 l -0.23724,-0.0714 0.0169,6.603173 0.0169,6.60318 -0.13365,-0.0343 c -1.73538,-0.44514 -3.03325,-0.58515 -5.02516,-0.5421 -2.08752,0.0451 -3.53792,0.27378 -4.85013,0.76468 l -0.4932,0.18451 -0.20767,-0.10595 c -0.55199,-0.2816 -2.11322,-0.62446 -3.40342,-0.74741 -2.08635,-0.19883 -4.64254,-0.0706 -6.26234,0.31407 -0.25038,0.0595 -0.48794,0.10812 -0.52792,0.10812 -0.0608,0 -0.0754,-1.06242 -0.0893,-6.49086 -0.009,-3.569973 -0.0331,-6.507363 -0.0533,-6.527523 -0.0412,-0.0412 -0.61818,0.13922 -1.04904,0.32801 l -0.28383,0.12438 0.031,4.478743 c 0.0601,8.69194 0.0835,9.96959 0.18226,9.92914 0.0479,-0.0196 0.29163,-0.106 0.54155,-0.19192 z m 12.96386,-2.61619 c 1.31218,-0.31674 2.5329,-0.44683 4.16982,-0.44438 1.32304,0.002 2.29846,0.0794 3.22479,0.25588 l 0.3837,0.0731 -4e-5,-3.9364 c -3e-5,-2.16503 -0.016,-5.430673 -0.0354,-7.257003 l -0.0354,-3.32058 -0.77983,-0.11355 c -2.18031,-0.31747 -4.37652,-0.28113 -6.28613,0.10401 -0.56246,0.11345 -1.80531,0.45348 -1.96463,0.53751 -0.0883,0.0466 -0.0935,0.40081 -0.0934,6.28882 1.1e-4,3.431723 0.0158,6.686253 0.0349,7.232303 l 0.0347,0.99282 0.45965,-0.15466 c 0.25281,-0.085 0.6521,-0.2011 0.88732,-0.25788 z m -2.25697,-2.78927 c -0.006,-1.74211 -0.0274,-5.002703 -0.0466,-7.245743 l -0.0349,-4.07825 -0.19399,-0.0822 c -0.34566,-0.1464 -1.56549,-0.43703 -2.30563,-0.54931 -2.00217,-0.30375 -4.19753,-0.26241 -6.25472,0.1178 l -0.34749,0.0642 0.003,7.22863 c 0.002,3.975753 0.0162,7.241643 0.0321,7.257553 0.0159,0.0159 0.19488,-0.006 0.39773,-0.0478 0.99029,-0.20604 1.7436,-0.26642 3.36254,-0.26954 1.01484,-0.002 1.8099,0.0225 2.16509,0.0666 0.81372,0.10106 2.05455,0.35804 2.60072,0.53863 0.26026,0.086 0.50927,0.15879 0.55338,0.16165 0.0706,0.005 0.0788,-0.37521 0.0685,-3.16227 z"
       id="path46"
       inkscape:connector-curvature="0" />
  </g>
</svg>
